<svg width="35.000000" height="41.543045" viewBox="0 0 35 41.543" fill="none" xmlns="http://www.w3.org/2000/svg" xmlns:xlink="http://www.w3.org/1999/xlink">
	<desc>
			Created with Pixso.
	</desc>
	<defs/>
	<path id="Vector" d="M35 30.45C34.7594 31.1281 34.5188 31.7625 34.2781 32.375C33.6438 33.8187 32.9 35.1531 32.0469 36.4C30.8656 38.0844 29.9031 39.2437 29.1594 39.8781C28.0219 40.9281 26.775 41.475 25.4625 41.4969C24.5219 41.4969 23.3844 41.2344 22.05 40.6875C20.7156 40.1406 19.4906 39.8781 18.375 39.8781C17.1938 39.8781 15.9469 40.1406 14.5906 40.6875C13.2344 41.2344 12.1625 41.5187 11.3313 41.5406C10.0625 41.5844 8.81563 41.0375 7.54688 39.8781C6.7375 39.1781 5.73125 37.975 4.52812 36.2687C3.23749 34.4531 2.16562 32.3531 1.33438 29.9469C0.4375 27.3438 0 24.8281 0 22.4C0 19.6219 0.612488 17.2156 1.81561 15.2031C2.75626 13.5844 4.02499 12.3156 5.60001 11.375C7.175 10.4344 8.88126 9.95312 10.7188 9.93125C11.725 9.93125 13.0375 10.2375 14.6781 10.85C16.3188 11.4625 17.3687 11.7687 17.8281 11.7687C18.1781 11.7687 19.3375 11.3969 21.3062 10.675C23.1656 9.99687 24.7406 9.73438 26.0312 9.84375C29.5312 10.1281 32.1562 11.5063 33.9062 13.9781C30.7781 15.8812 29.225 18.5281 29.2688 21.9406C29.2906 24.5875 30.2531 26.7969 32.1562 28.5469C32.9875 29.3781 33.9281 29.9906 35 30.45ZM26.2063 0C26.2281 0.284374 26.25 0.546873 26.25 0.831247C26.25 2.90937 25.4844 4.85625 23.975 6.65C22.1375 8.79375 19.9281 10.0187 17.5437 9.82188C17.5219 9.58125 17.5 9.31875 17.5 9.03437C17.5 7.04375 18.375 4.9 19.9062 3.15C20.6719 2.275 21.6562 1.53125 22.8375 0.940624C24.0406 0.371874 25.1562 0.0437508 26.2063 0Z" fill="#333333" fill-opacity="1.000000" fill-rule="nonzero"/>
</svg>
